<svg id="Layer_1" data-name="Layer 1" xmlns="http://www.w3.org/2000/svg" xmlns:xlink="http://www.w3.org/1999/xlink" viewBox="0 0 3472.16 3463.38"><defs><style>.cls-1{fill:none;clip-rule:evenodd;}.cls-2{clip-path:url(#clip-path);}.cls-3{fill:#77afe8;}.cls-4{fill:#78afe8;}.cls-103,.cls-104,.cls-107,.cls-110,.cls-111,.cls-112,.cls-114,.cls-116,.cls-117,.cls-119,.cls-12,.cls-120,.cls-123,.cls-124,.cls-127,.cls-128,.cls-131,.cls-134,.cls-135,.cls-137,.cls-138,.cls-14,.cls-141,.cls-144,.cls-145,.cls-147,.cls-149,.cls-152,.cls-155,.cls-157,.cls-158,.cls-16,.cls-161,.cls-162,.cls-164,.cls-166,.cls-167,.cls-169,.cls-172,.cls-173,.cls-176,.cls-179,.cls-18,.cls-180,.cls-181,.cls-182,.cls-183,.cls-184,.cls-185,.cls-20,.cls-21,.cls-22,.cls-24,.cls-26,.cls-27,.cls-29,.cls-31,.cls-32,.cls-34,.cls-35,.cls-37,.cls-39,.cls-4,.cls-40,.cls-43,.cls-46,.cls-48,.cls-5,.cls-50,.cls-52,.cls-53,.cls-59,.cls-60,.cls-61,.cls-64,.cls-67,.cls-68,.cls-69,.cls-7,.cls-72,.cls-74,.cls-76,.cls-77,.cls-80,.cls-82,.cls-83,.cls-86,.cls-87,.cls-89,.cls-9,.cls-90,.cls-92,.cls-94,.cls-95,.cls-99{fill-rule:evenodd;}.cls-5,.cls-6{fill:#78b0e8;}.cls-7{fill:#79b0e8;}.cls-8,.cls-9{fill:#79b1e8;}.cls-10{fill:#7ab1e9;}.cls-11{fill:#7bb1e9;}.cls-12{fill:#7bb2e9;}.cls-13{fill:#7cb2e9;}.cls-14,.cls-15{fill:#7cb3e9;}.cls-16,.cls-17{fill:#7db3e9;}.cls-18{fill:#7db4e9;}.cls-19,.cls-20{fill:#7eb4e9;}.cls-21{fill:#7fb4ea;}.cls-22,.cls-23{fill:#7fb5ea;}.cls-24{fill:#80b5ea;}.cls-25{fill:#80b6ea;}.cls-26{fill:#81b6ea;}.cls-27{fill:#82b6ea;}.cls-28,.cls-29{fill:#82b7ea;}.cls-30{fill:#83b7ea;}.cls-31{fill:#83b8ea;}.cls-32{fill:#83b8eb;}.cls-33,.cls-34{fill:#84b8eb;}.cls-35,.cls-36{fill:#85b9eb;}.cls-37{fill:#86b9eb;}.cls-38,.cls-39{fill:#86baeb;}.cls-40{fill:#87baeb;}.cls-41{fill:#87bbeb;}.cls-42,.cls-43{fill:#88bbeb;}.cls-44{fill:#88bbec;}.cls-45{fill:#89bbec;}.cls-46,.cls-47{fill:#89bcec;}.cls-48,.cls-49{fill:#8abcec;}.cls-50{fill:#8abdec;}.cls-51,.cls-52{fill:#8bbdec;}.cls-53,.cls-54{fill:#8cbeec;}.cls-55{fill:#8dbeec;}.cls-56{fill:#8dbfec;}.cls-57{fill:#8dbfed;}.cls-58,.cls-59{fill:#8ebfed;}.cls-60{fill:#8ec0ed;}.cls-61,.cls-62{fill:#8fc0ed;}.cls-63{fill:#90c0ed;}.cls-64,.cls-65{fill:#90c1ed;}.cls-66,.cls-67{fill:#91c1ed;}.cls-68{fill:#91c2ed;}.cls-69,.cls-70{fill:#92c2ed;}.cls-71{fill:#92c2ee;}.cls-72,.cls-73{fill:#93c3ee;}.cls-74{fill:#94c3ee;}.cls-75,.cls-76{fill:#94c4ee;}.cls-77{fill:#95c4ee;}.cls-78{fill:#95c5ee;}.cls-79,.cls-80{fill:#96c5ee;}.cls-81{fill:#97c5ee;}.cls-82{fill:#97c6ee;}.cls-83,.cls-84{fill:#97c6ef;}.cls-85,.cls-86{fill:#98c6ef;}.cls-87{fill:#98c7ef;}.cls-88,.cls-89{fill:#99c7ef;}.cls-90,.cls-91{fill:#9ac8ef;}.cls-92{fill:#9bc8ef;}.cls-93,.cls-94{fill:#9bc9ef;}.cls-95,.cls-96{fill:#9cc9ef;}.cls-97{fill:#9cc9f0;}.cls-98{fill:#9ccaf0;}.cls-100,.cls-99{fill:#9dcaf0;}.cls-101{fill:#9ecaf0;}.cls-102,.cls-103{fill:#9ecbf0;}.cls-104{fill:#9fcbf0;}.cls-105{fill:#9fccf0;}.cls-106,.cls-107{fill:#a0ccf0;}.cls-108{fill:#a1cdf0;}.cls-109,.cls-110{fill:#a1cdf1;}.cls-111{fill:#a2cdf1;}.cls-112,.cls-113{fill:#a2cef1;}.cls-114,.cls-115{fill:#a3cef1;}.cls-116{fill:#a3cff1;}.cls-117,.cls-118{fill:#a4cff1;}.cls-119{fill:#a5cff1;}.cls-120{fill:#a5d0f1;}.cls-121{fill:#a6d0f1;}.cls-122{fill:#a6d0f2;}.cls-123{fill:#a6d1f2;}.cls-124,.cls-125{fill:#a7d1f2;}.cls-126,.cls-127{fill:#a8d2f2;}.cls-128,.cls-129{fill:#a9d2f2;}.cls-130{fill:#a9d3f2;}.cls-131,.cls-132{fill:#aad3f2;}.cls-133{fill:#aad4f2;}.cls-134{fill:#abd4f2;}.cls-135,.cls-136{fill:#abd4f3;}.cls-137{fill:#acd4f3;}.cls-138,.cls-139{fill:#acd5f3;}.cls-140,.cls-141{fill:#add5f3;}.cls-142{fill:#add6f3;}.cls-143,.cls-144{fill:#aed6f3;}.cls-145,.cls-146{fill:#afd7f3;}.cls-147{fill:#b0d7f3;}.cls-148{fill:#b0d7f4;}.cls-149{fill:#b0d8f4;}.cls-150{fill:#b1d8f4;}.cls-151{fill:#b1d9f4;}.cls-152,.cls-153{fill:#b2d9f4;}.cls-154,.cls-155{fill:#b3d9f4;}.cls-156,.cls-157{fill:#b3daf4;}.cls-158{fill:#b4daf4;}.cls-159{fill:#b4dbf4;}.cls-160,.cls-161{fill:#b5dbf5;}.cls-162{fill:#b6dbf5;}.cls-163{fill:#b6dcf5;}.cls-164{fill:#b7dcf5;}.cls-165,.cls-166{fill:#b7ddf5;}.cls-167,.cls-168{fill:#b8ddf5;}.cls-169{fill:#b8def5;}.cls-170{fill:#b9def5;}.cls-171,.cls-172{fill:#badef6;}.cls-173,.cls-174{fill:#badff6;}.cls-175,.cls-176{fill:#bbdff6;}.cls-177{fill:#bbe0f6;}.cls-178,.cls-179{fill:#bce0f6;}.cls-180{fill:#3b77d9;}.cls-181{fill:#fff;}.cls-182{fill:#95dfe8;}.cls-183{fill:#2b5cae;}.cls-184{fill:#ff9a8c;}.cls-185{fill:#fefefe;}</style><clipPath id="clip-path" transform="translate(-1758.21 -538.04)"><path id="SVGID" class="cls-1" d="M2713.17,1543c4.27,99.77,104.91,209.67,161.5,301.71,30.92,50.31,57.62,101.65,30.38,130.36-45,47.43-125.75,96.16-179.18,150.56-52.91,53.9-97.93,109.09-130,157.1-65.1,97.47-96.61,199.55-102,289.75-4.95,83.53,11.8,156.38,63.23,218.5,90.73,109.6,213.73,113.52,360.15,75.54,156.05-40.48,338.68-125,536.4-166.61,51.85-10.92,104.63-21,158.44-22.29,73.72-1.79,139.85,11.45,195.79,38.05,73.81,35.1,126.19,84.46,183.66,130.22,206.87,164.73,495.23,175.29,681.14-28.85,245.91-270,222.68-678.74,27.95-1000.7-109.84-181.6-254.34-301.37-407.86-397.85-249.67-156.89-539.75-229.45-866.44-237-508.14-11.75-720.67,186.49-713.2,361.51ZM2301.54,2630.17c-131.71,2.31-146.11-147.38-86.55-241.64,56.69-89.74,180.43-174.71,380.58-236.17-55.9,46.37-100.07,106.07-143.7,169.6C2381.3,2424.71,2399.36,2616.07,2301.54,2630.17Z"/></clipPath></defs><title>404</title><g id="_404-lady" data-name="404-lady"><g class="cls-2"><rect class="cls-3" x="2761.64" y="2476.15" width="2496.87" height="819.46" transform="translate(-2675.46 2709) rotate(-39.93)"/><rect class="cls-3" x="2497.83" y="2566.99" width="2496.88" height="7.51" transform="translate(-2534.54 2467.78) rotate(-39.95)"/><polygon class="cls-4" points="1029.97 2833.11 1025.16 2827.36 2939.75 1224.64 2944.55 1230.38 1029.97 2833.11"/><polygon class="cls-5" points="1026.75 2829.27 1021.94 2823.53 2936.53 1220.79 2941.36 1226.55 1026.75 2829.27"/><rect class="cls-6" x="2488.21" y="2555.48" width="2496.88" height="7.51" transform="translate(-2529.4 2458.91) rotate(-39.95)"/><rect class="cls-6" x="2485" y="2551.65" width="2496.87" height="7.51" transform="translate(-2527.69 2455.95) rotate(-39.95)"/><polygon class="cls-7" points="1017.12 2817.77 1012.3 2812.02 2926.91 1209.28 2931.71 1215.04 1017.12 2817.77"/><polygon class="cls-7" points="1013.91 2813.93 1009.11 2808.18 2923.7 1205.46 2928.5 1211.21 1013.91 2813.93"/><rect class="cls-8" x="2475.37" y="2540.14" width="2496.88" height="7.51" transform="translate(-2522.55 2447.09) rotate(-39.95)"/><polygon class="cls-9" points="1007.5 2806.27 1002.68 2800.51 2917.26 1197.79 2922.09 1203.53 1007.5 2806.27"/><rect class="cls-10" x="2468.94" y="2532.47" width="2496.87" height="7.51" transform="translate(-2519.13 2441.12) rotate(-39.95)"/><rect class="cls-10" x="2465.73" y="2528.64" width="2496.88" height="7.5" transform="translate(-2518.14 2430.81) rotate(-39.86)"/><rect class="cls-10" x="2462.53" y="2524.8" width="2496.87" height="7.51" transform="translate(-2515.7 2435.26) rotate(-39.95)"/><rect class="cls-11" x="2459.31" y="2520.97" width="2496.88" height="7.51" transform="translate(-2513.78 2434.37) rotate(-39.98)"/><polygon class="cls-12" points="991.45 2787.09 986.63 2781.34 2901.21 1178.62 2906.03 1184.36 991.45 2787.09"/><polygon class="cls-12" points="988.23 2783.25 983.42 2777.51 2898.01 1174.77 2902.82 1180.53 988.23 2783.25"/><polygon class="cls-12" points="985.02 2779.43 980.21 2773.67 2894.8 1170.93 2899.62 1176.69 985.02 2779.43"/><rect class="cls-13" x="2446.48" y="2505.63" width="2496.87" height="7.51" transform="translate(-2507.13 2420.43) rotate(-39.95)"/><rect class="cls-13" x="2443.26" y="2501.8" width="2496.88" height="7.51" transform="translate(-2505.42 2417.47) rotate(-39.95)"/><polygon class="cls-14" points="975.39 2767.91 970.57 2762.16 2885.17 1159.44 2889.98 1165.19 975.39 2767.91"/><rect class="cls-15" x="2436.84" y="2494.13" width="2496.88" height="7.49" transform="translate(-2502.53 2406.31) rotate(-39.88)"/><polygon class="cls-16" points="968.98 2760.25 964.16 2754.49 2878.74 1151.77 2883.57 1157.51 968.98 2760.25"/><rect class="cls-17" x="2430.42" y="2486.45" width="2496.87" height="7.51" transform="translate(-2498.35 2407.72) rotate(-39.98)"/><polygon class="cls-16" points="962.55 2752.58 957.73 2746.83 2872.34 1144.09 2877.14 1149.85 962.55 2752.58"/><polygon class="cls-18" points="959.34 2748.74 954.53 2742.98 2869.12 1140.26 2873.92 1146.02 959.34 2748.74"/><rect class="cls-19" x="2420.79" y="2474.95" width="2496.88" height="7.51" transform="translate(-2493.43 2396.78) rotate(-39.95)"/><polygon class="cls-20" points="952.92 2741.07 948.1 2735.32 2862.69 1132.6 2867.51 1138.34 952.92 2741.07"/><polygon class="cls-20" points="949.71 2737.23 944.89 2731.49 2859.47 1128.76 2864.3 1134.51 949.71 2737.23"/><polygon class="cls-21" points="946.49 2733.4 941.69 2727.65 2856.28 1124.91 2861.08 1130.67 946.49 2733.4"/><polygon class="cls-22" points="943.28 2729.56 938.48 2723.81 2853.07 1121.09 2857.89 1126.84 943.28 2729.56"/><rect class="cls-23" x="2404.74" y="2455.78" width="2496.88" height="7.51" transform="translate(-2484.86 2382.08) rotate(-39.95)"/><rect class="cls-23" x="2401.53" y="2451.94" width="2496.87" height="7.51" transform="translate(-2483.4 2376.62) rotate(-39.92)"/><polygon class="cls-24" points="933.65 2718.07 928.85 2712.32 2843.44 1109.58 2848.24 1115.34 933.65 2718.07"/><polygon class="cls-24" points="930.44 2714.23 925.64 2708.47 2840.22 1105.75 2845.03 1111.49 930.44 2714.23"/><rect class="cls-25" x="2391.9" y="2440.43" width="2496.87" height="7.5" transform="translate(-2478.26 2367.84) rotate(-39.92)"/><rect class="cls-25" x="2388.68" y="2436.6" width="2496.88" height="7.51" transform="translate(-2476.3 2367.21) rotate(-39.95)"/><polygon class="cls-26" points="920.82 2702.72 916 2696.97 2830.6 1094.24 2835.41 1100 920.82 2702.72"/><polygon class="cls-26" points="917.6 2698.89 912.8 2693.14 2827.38 1090.4 2832.19 1096.16 917.6 2698.89"/><polygon class="cls-26" points="914.4 2695.05 909.58 2689.3 2824.17 1086.58 2828.99 1092.31 914.4 2695.05"/><polygon class="cls-27" points="911.19 2691.21 906.37 2685.47 2820.96 1082.74 2825.78 1088.49 911.19 2691.21"/><rect class="cls-28" x="2372.63" y="2417.42" width="2496.88" height="7.51" transform="translate(-2467.72 2352.5) rotate(-39.95)"/><rect class="cls-28" x="2369.43" y="2413.6" width="2496.87" height="7.5" transform="translate(-2466.79 2342.35) rotate(-39.86)"/><polygon class="cls-29" points="901.55 2679.72 896.74 2673.96 2811.33 1071.23 2816.15 1076.98 901.55 2679.72"/><rect class="cls-30" x="2363.01" y="2405.92" width="2496.87" height="7.51" transform="translate(-2462.59 2343.6) rotate(-39.95)"/><rect class="cls-30" x="2359.79" y="2402.09" width="2496.88" height="7.51" transform="translate(-2460.87 2340.67) rotate(-39.95)"/><polygon class="cls-31" points="891.92 2668.21 887.12 2662.46 2801.71 1059.73 2806.51 1065.47 891.92 2668.21"/><polygon class="cls-32" points="888.71 2664.37 883.9 2658.61 2798.49 1055.89 2803.31 1061.65 888.71 2664.37"/><rect class="cls-33" x="2350.16" y="2390.58" width="2496.88" height="7.51" transform="translate(-2455.73 2331.78) rotate(-39.95)"/><rect class="cls-33" x="2346.95" y="2386.75" width="2496.87" height="7.51" transform="translate(-2454.02 2328.85) rotate(-39.95)"/><polygon class="cls-34" points="879.08 2652.87 874.26 2647.12 2788.86 1044.38 2793.67 1050.14 879.08 2652.87"/><polygon class="cls-35" points="875.87 2649.03 871.06 2643.28 2785.65 1040.56 2790.45 1046.29 875.87 2649.03"/><polygon class="cls-35" points="872.67 2645.19 867.85 2639.45 2782.44 1036.72 2787.26 1042.47 872.67 2645.19"/><rect class="cls-36" x="2334.11" y="2371.4" width="2496.88" height="7.51" transform="translate(-2446.94 2319) rotate(-39.98)"/><rect class="cls-36" x="2330.9" y="2367.57" width="2496.87" height="7.51" transform="translate(-2445.46 2313.99) rotate(-39.95)"/><polygon class="cls-37" points="863.03 2633.7 858.22 2627.94 2772.81 1025.2 2777.62 1030.96 863.03 2633.7"/><rect class="cls-38" x="2324.49" y="2359.9" width="2496.87" height="7.51" transform="translate(-2442.03 2308.12) rotate(-39.95)"/><rect class="cls-38" x="2321.27" y="2356.07" width="2496.88" height="7.51" transform="translate(-2440.32 2305.15) rotate(-39.95)"/><polygon class="cls-39" points="853.4 2622.19 848.58 2616.44 2763.17 1013.72 2767.99 1019.46 853.4 2622.19"/><polygon class="cls-40" points="850.19 2618.35 845.38 2612.59 2759.97 1009.87 2764.78 1015.63 850.19 2618.35"/><polygon class="cls-40" points="846.98 2614.52 842.17 2608.77 2756.76 1006.03 2761.58 1011.78 846.98 2614.52"/><rect class="cls-41" x="2308.43" y="2340.73" width="2496.87" height="7.51" transform="matrix(0.77, -0.64, 0.64, 0.77, -2433.46, 2293.33)"/><rect class="cls-42" x="2305.21" y="2336.89" width="2496.88" height="7.51" transform="translate(-2431.75 2290.38) rotate(-39.95)"/><polygon class="cls-43" points="837.35 2603.01 832.53 2597.26 2747.13 994.54 2751.93 1000.28 837.35 2603.01"/><polygon class="cls-43" points="834.13 2599.17 829.33 2593.43 2743.92 990.7 2748.72 996.45 834.13 2599.17"/><rect class="cls-44" x="2295.59" y="2325.39" width="2496.88" height="7.51" transform="translate(-2426.61 2281.5) rotate(-39.95)"/><rect class="cls-45" x="2292.38" y="2321.55" width="2496.87" height="7.51" transform="translate(-2424.89 2278.55) rotate(-39.95)"/><polygon class="cls-46" points="824.5 2587.68 819.69 2581.93 2734.29 979.19 2739.09 984.94 824.5 2587.68"/><polygon class="cls-46" points="821.29 2583.84 816.49 2578.08 2731.08 975.36 2735.88 981.12 821.29 2583.84"/><rect class="cls-47" x="2282.75" y="2310.05" width="2496.88" height="7.51" transform="translate(-2419.75 2269.72) rotate(-39.95)"/><polygon class="cls-48" points="814.88 2576.17 810.06 2570.41 2724.65 967.7 2729.47 973.43 814.88 2576.17"/><rect class="cls-49" x="2276.32" y="2302.37" width="2496.87" height="7.51" transform="translate(-2416.1 2265.69) rotate(-39.98)"/><polygon class="cls-50" points="808.45 2568.5 803.65 2562.75 2718.24 960.01 2723.04 965.77 808.45 2568.5"/><polygon class="cls-50" points="805.24 2564.66 800.44 2558.91 2715.02 956.18 2719.84 961.94 805.24 2564.66"/><rect class="cls-51" x="2266.69" y="2290.88" width="2496.88" height="7.51" transform="translate(-2411.19 2254.89) rotate(-39.95)"/><polygon class="cls-52" points="798.83 2556.99 794.01 2551.24 2708.6 948.52 2713.42 954.26 798.83 2556.99"/><polygon class="cls-52" points="795.62 2553.16 790.81 2547.42 2705.39 944.67 2710.2 950.43 795.62 2553.16"/><polygon class="cls-53" points="792.4 2549.33 787.59 2543.57 2702.18 940.84 2707 946.59 792.4 2549.33"/><rect class="cls-54" x="2253.86" y="2275.53" width="2496.87" height="7.51" transform="translate(-2404.11 2244.95) rotate(-39.98)"/><rect class="cls-54" x="2250.64" y="2271.7" width="2496.88" height="7.51" transform="translate(-2402.62 2240.1) rotate(-39.95)"/><polygon class="cls-53" points="782.77 2537.82 777.95 2532.06 2692.56 929.34 2697.36 935.1 782.77 2537.82"/><rect class="cls-55" x="2244.22" y="2264.04" width="2496.88" height="7.5" transform="translate(-2400.02 2227.38) rotate(-39.86)"/><rect class="cls-56" x="2241.01" y="2260.19" width="2496.88" height="7.51" transform="translate(-2397.48 2231.2) rotate(-39.95)"/><rect class="cls-57" x="2237.8" y="2256.35" width="2496.87" height="7.51" transform="matrix(0.77, -0.64, 0.64, 0.77, -2395.76, 2228.32)"/><rect class="cls-57" x="2234.59" y="2252.52" width="2496.88" height="7.51" transform="translate(-2394.06 2225.33) rotate(-39.95)"/><rect class="cls-58" x="2231.39" y="2248.69" width="2496.87" height="7.5" transform="translate(-2392.94 2217.49) rotate(-39.89)"/><polygon class="cls-59" points="763.51 2514.82 758.7 2509.06 2673.29 906.33 2678.11 912.08 763.51 2514.82"/><polygon class="cls-60" points="760.31 2510.97 755.49 2505.22 2670.07 902.5 2674.9 908.24 760.31 2510.97"/><polygon class="cls-61" points="757.09 2507.13 752.27 2501.39 2666.86 898.66 2671.68 904.41 757.09 2507.13"/><polygon class="cls-61" points="753.88 2503.31 749.08 2497.55 2663.66 894.82 2668.47 900.57 753.88 2503.31"/><polygon class="cls-61" points="750.66 2499.47 745.86 2493.71 2660.45 890.99 2665.27 896.74 750.66 2499.47"/><rect class="cls-62" x="2212.12" y="2225.68" width="2496.88" height="7.51" transform="translate(-2382.06 2204.63) rotate(-39.95)"/><rect class="cls-63" x="2208.91" y="2221.84" width="2496.87" height="7.51" transform="translate(-2380.11 2203.56) rotate(-39.98)"/><polygon class="cls-64" points="741.04 2487.96 736.22 2482.22 2650.82 879.48 2655.63 885.24 741.04 2487.96"/><polygon class="cls-64" points="737.83 2484.13 733.02 2478.37 2647.61 875.64 2652.41 881.39 737.83 2484.13"/><rect class="cls-65" x="2199.29" y="2210.34" width="2496.87" height="7.51" transform="translate(-2375.21 2192.81) rotate(-39.95)"/><rect class="cls-66" x="2196.06" y="2206.5" width="2496.88" height="7.51" transform="translate(-2373.5 2189.81) rotate(-39.95)"/><polygon class="cls-67" points="728.2 2472.62 723.38 2466.87 2637.98 864.15 2642.79 869.9 728.2 2472.62"/><polygon class="cls-68" points="724.99 2468.8 720.18 2463.04 2634.77 860.3 2639.57 866.06 724.99 2468.8"/><polygon class="cls-69" points="721.78 2464.95 716.96 2459.2 2631.55 856.48 2636.37 862.22 721.78 2464.95"/><polygon class="cls-69" points="718.57 2461.11 713.75 2455.38 2628.34 852.64 2633.16 858.39 718.57 2461.11"/><rect class="cls-70" x="2180.01" y="2187.32" width="2496.88" height="7.51" transform="translate(-2364.93 2175.06) rotate(-39.95)"/><rect class="cls-71" x="2176.81" y="2183.5" width="2496.87" height="7.5" transform="translate(-2363.79 2167.66) rotate(-39.89)"/><polygon class="cls-72" points="708.93 2449.62 704.13 2443.86 2618.71 841.13 2623.54 846.88 708.93 2449.62"/><rect class="cls-73" x="2170.39" y="2175.83" width="2496.87" height="7.5" transform="translate(-2359.8 2166.16) rotate(-39.95)"/><polygon class="cls-72" points="702.52 2441.94 697.7 2436.2 2612.28 833.46 2617.11 839.22 702.52 2441.94"/><rect class="cls-73" x="2163.96" y="2168.16" width="2496.88" height="7.49" transform="translate(-2356.99 2155.49) rotate(-39.88)"/><polygon class="cls-74" points="696.09 2434.27 691.29 2428.51 2605.88 825.79 2610.68 831.55 696.09 2434.27"/><rect class="cls-75" x="2157.55" y="2160.48" width="2496.88" height="7.51" transform="translate(-2352.69 2156.21) rotate(-39.98)"/><rect class="cls-75" x="2154.34" y="2156.65" width="2496.87" height="7.51" transform="translate(-2351.22 2151.41) rotate(-39.95)"/><polygon class="cls-76" points="686.47 2422.78 681.64 2417.02 2596.25 814.28 2601.05 820.04 686.47 2422.78"/><polygon class="cls-77" points="683.25 2418.94 678.45 2413.18 2593.03 810.46 2597.84 816.2 683.25 2418.94"/><polygon class="cls-77" points="680.05 2415.09 675.23 2409.35 2589.82 806.62 2594.64 812.37 680.05 2415.09"/><rect class="cls-78" x="2141.49" y="2141.31" width="2496.88" height="7.51" transform="translate(-2344.37 2139.58) rotate(-39.95)"/><rect class="cls-79" x="2138.28" y="2137.47" width="2496.87" height="7.51" transform="translate(-2342.66 2136.58) rotate(-39.95)"/><rect class="cls-79" x="2135.07" y="2133.64" width="2496.88" height="7.5" transform="translate(-2341.58 2128.93) rotate(-39.88)"/><polygon class="cls-80" points="667.2 2399.76 662.39 2394.01 2576.98 791.28 2581.8 797.04 667.2 2399.76"/><polygon class="cls-80" points="664 2395.92 659.18 2390.18 2573.76 787.44 2578.58 793.2 664 2395.92"/><rect class="cls-81" x="2125.44" y="2122.13" width="2496.88" height="7.51" transform="translate(-2336.1 2122.58) rotate(-39.92)"/><polygon class="cls-82" points="657.57 2388.25 652.76 2382.49 2567.35 779.77 2572.16 785.53 657.57 2388.25"/><polygon class="cls-83" points="654.36 2384.43 649.55 2378.67 2564.14 775.94 2568.96 781.69 654.36 2384.43"/><rect class="cls-84" x="2115.82" y="2110.63" width="2496.87" height="7.51" transform="translate(-2330.97 2113.72) rotate(-39.92)"/><rect class="cls-85" x="2112.6" y="2106.8" width="2496.88" height="7.51" transform="translate(-2328.7 2114.79) rotate(-39.98)"/><polygon class="cls-86" points="644.73 2372.92 639.91 2367.16 2554.51 764.44 2559.32 770.18 644.73 2372.92"/><polygon class="cls-87" points="641.52 2369.07 636.71 2363.33 2551.3 760.6 2556.1 766.35 641.52 2369.07"/><rect class="cls-88" x="2102.97" y="2095.29" width="2496.88" height="7.51" transform="translate(-2323.81 2104.07) rotate(-39.95)"/><rect class="cls-88" x="2099.76" y="2091.45" width="2496.87" height="7.51" transform="translate(-2322.1 2101.15) rotate(-39.95)"/><rect class="cls-88" x="2096.54" y="2087.62" width="2496.88" height="7.51" transform="translate(-2320.39 2098.19) rotate(-39.95)"/><polygon class="cls-89" points="628.67 2353.74 623.87 2347.98 2538.46 745.26 2543.26 751.02 628.67 2353.74"/><polygon class="cls-90" points="625.48 2349.9 620.66 2344.16 2535.25 741.42 2540.07 747.18 625.48 2349.9"/><rect class="cls-91" x="2086.92" y="2076.11" width="2496.88" height="7.51" transform="translate(-2315.24 2089.32) rotate(-39.95)"/><rect class="cls-91" x="2083.71" y="2072.28" width="2496.87" height="7.51" transform="translate(-2313.28 2088.16) rotate(-39.98)"/><polygon class="cls-90" points="615.84 2338.41 611.03 2332.65 2525.62 729.92 2530.43 735.67 615.84 2338.41"/><polygon class="cls-92" points="612.62 2334.56 607.82 2328.81 2522.4 726.09 2527.22 731.84 612.62 2334.56"/><rect class="cls-93" x="2074.07" y="2060.78" width="2496.88" height="7.51" transform="translate(-2308.39 2077.49) rotate(-39.95)"/><polygon class="cls-94" points="606.21 2326.9 601.39 2321.14 2515.98 718.42 2520.8 724.16 606.21 2326.9"/><polygon class="cls-95" points="603 2323.06 598.18 2317.32 2512.78 714.58 2517.58 720.33 603 2323.06"/><rect class="cls-96" x="2064.44" y="2049.27" width="2496.88" height="7.5" transform="translate(-2303.86 2064.36) rotate(-39.89)"/><rect class="cls-97" x="2061.24" y="2045.43" width="2496.87" height="7.51" transform="translate(-2301.28 2067.45) rotate(-39.98)"/><rect class="cls-98" x="2058.02" y="2041.6" width="2496.88" height="7.51" transform="translate(-2299.83 2062.67) rotate(-39.95)"/><polygon class="cls-99" points="590.16 2307.72 585.34 2301.96 2499.94 699.24 2504.74 705 590.16 2307.72"/><polygon class="cls-99" points="586.94 2303.88 582.14 2298.14 2496.72 695.4 2501.53 701.16 586.94 2303.88"/><rect class="cls-100" x="2048.4" y="2030.09" width="2496.88" height="7.51" transform="translate(-2294.69 2053.8) rotate(-39.95)"/><rect class="cls-100" x="2045.19" y="2026.26" width="2496.87" height="7.51" transform="translate(-2292.98 2050.84) rotate(-39.95)"/><rect class="cls-101" x="2041.97" y="2022.42" width="2496.88" height="7.51" transform="translate(-2291.26 2047.92) rotate(-39.95)"/><rect class="cls-102" x="2038.77" y="2018.6" width="2496.87" height="7.5" transform="translate(-2290.21 2040.41) rotate(-39.88)"/><polygon class="cls-103" points="570.89 2284.72 566.09 2278.96 2480.67 676.23 2485.49 681.98 570.89 2284.72"/><polygon class="cls-104" points="567.69 2280.88 562.87 2275.13 2477.46 672.4 2482.28 678.14 567.69 2280.88"/><polygon class="cls-104" points="564.48 2277.04 559.65 2271.3 2474.24 668.56 2479.07 674.32 564.48 2277.04"/><polygon class="cls-104" points="561.26 2273.21 556.46 2267.45 2471.04 664.72 2475.85 670.47 561.26 2273.21"/><rect class="cls-105" x="2022.71" y="1999.42" width="2496.87" height="7.5" transform="translate(-2281.91 2023.89) rotate(-39.86)"/><rect class="cls-106" x="2019.5" y="1995.58" width="2496.88" height="7.51" transform="translate(-2279.26 2027.23) rotate(-39.95)"/><rect class="cls-106" x="2016.29" y="1991.75" width="2496.87" height="7.51" transform="translate(-2277.55 2024.3) rotate(-39.95)"/><polygon class="cls-107" points="548.42 2257.86 543.6 2252.12 2458.2 649.38 2463.01 655.14 548.42 2257.86"/><rect class="cls-106" x="2009.87" y="1984.08" width="2496.88" height="7.5" transform="translate(-2274.79 2013.88) rotate(-39.89)"/><rect class="cls-108" x="2006.67" y="1980.24" width="2496.87" height="7.51" transform="translate(-2272.41 2015.41) rotate(-39.95)"/><rect class="cls-109" x="2003.45" y="1976.4" width="2496.88" height="7.51" transform="translate(-2271.01 2010.36) rotate(-39.92)"/><rect class="cls-109" x="2000.24" y="1972.57" width="2496.87" height="7.51" transform="translate(-2268.99 2009.45) rotate(-39.95)"/><polygon class="cls-110" points="532.37 2238.7 527.56 2232.94 2442.15 630.21 2446.96 635.96 532.37 2238.7"/><polygon class="cls-111" points="529.16 2234.86 524.35 2229.11 2438.93 626.38 2443.76 632.12 529.16 2234.86"/><polygon class="cls-112" points="525.95 2231.02 521.13 2225.28 2435.72 622.54 2440.54 628.3 525.95 2231.02"/><rect class="cls-113" x="1987.39" y="1957.23" width="2496.88" height="7.51" transform="translate(-2261.87 1999.35) rotate(-39.98)"/><polygon class="cls-114" points="519.53 2223.35 514.72 2217.59 2429.31 614.88 2434.11 620.63 519.53 2223.35"/><polygon class="cls-114" points="516.31 2219.52 511.51 2213.77 2426.1 611.03 2430.92 616.79 516.31 2219.52"/><rect class="cls-115" x="1977.77" y="1945.73" width="2496.87" height="7.51" transform="translate(-2256.99 1988.79) rotate(-39.95)"/><polygon class="cls-116" points="509.9 2211.84 505.08 2206.1 2419.67 603.36 2424.49 609.12 509.9 2211.84"/><polygon class="cls-117" points="506.69 2208.02 501.86 2202.26 2416.47 599.53 2421.28 605.28 506.69 2208.02"/><polygon class="cls-117" points="503.47 2204.17 498.67 2198.42 2413.26 595.7 2418.06 601.45 503.47 2204.17"/><rect class="cls-118" x="1964.93" y="1930.39" width="2496.88" height="7.5" transform="translate(-2249.87 1978.67) rotate(-39.98)"/><rect class="cls-118" x="1961.72" y="1926.55" width="2496.87" height="7.51" transform="translate(-2248.43 1974.01) rotate(-39.95)"/><polygon class="cls-119" points="493.85 2192.68 489.02 2186.92 2403.63 584.19 2408.44 589.94 493.85 2192.68"/><polygon class="cls-120" points="490.63 2188.84 485.83 2183.08 2400.41 580.37 2405.22 586.1 490.63 2188.84"/><polygon class="cls-120" points="487.43 2185 482.61 2179.26 2397.2 576.52 2402.02 582.28 487.43 2185"/><rect class="cls-121" x="1948.87" y="1911.21" width="2496.88" height="7.51" transform="translate(-2241.57 1962.18) rotate(-39.95)"/><rect class="cls-121" x="1945.67" y="1907.38" width="2496.87" height="7.51" transform="matrix(0.77, -0.64, 0.64, 0.77, -2239.86, 1959.22)"/><rect class="cls-122" x="1942.45" y="1903.55" width="2496.88" height="7.5" transform="translate(-2238.53 1953.87) rotate(-39.92)"/><polygon class="cls-123" points="474.58 2169.66 469.77 2163.91 2384.36 561.19 2389.18 566.93 474.58 2169.66"/><polygon class="cls-124" points="471.38 2165.82 466.56 2160.08 2381.15 557.34 2385.97 563.1 471.38 2165.82"/><rect class="cls-125" x="1932.82" y="1892.03" width="2496.88" height="7.51" transform="translate(-2233.01 1947.39) rotate(-39.95)"/><polygon class="cls-124" points="464.95 2158.15 460.13 2152.4 2374.74 549.68 2379.54 555.43 464.95 2158.15"/><polygon class="cls-124" points="461.74 2154.33 456.93 2148.57 2371.52 545.84 2376.33 551.59 461.74 2154.33"/><rect class="cls-126" x="1923.2" y="1880.53" width="2496.87" height="7.51" transform="translate(-2227.87 1938.49) rotate(-39.95)"/><rect class="cls-126" x="1919.98" y="1876.7" width="2496.88" height="7.5" transform="translate(-2225.88 1937.24) rotate(-39.98)"/><polygon class="cls-127" points="452.11 2142.82 447.29 2137.06 2361.9 534.34 2366.7 540.08 452.11 2142.82"/><polygon class="cls-128" points="448.9 2138.98 444.1 2133.22 2358.68 530.5 2363.49 536.25 448.9 2138.98"/><rect class="cls-129" x="1910.35" y="1865.19" width="2496.88" height="7.51" transform="translate(-2221.02 1926.66) rotate(-39.95)"/><rect class="cls-130" x="1907.14" y="1861.36" width="2496.87" height="7.51" transform="translate(-2219.02 1925.44) rotate(-39.98)"/><rect class="cls-130" x="1903.93" y="1857.52" width="2496.88" height="7.51" transform="translate(-2217.59 1920.78) rotate(-39.95)"/><polygon class="cls-131" points="436.06 2123.64 431.25 2117.89 2345.84 515.17 2350.65 520.91 436.06 2123.64"/><polygon class="cls-131" points="432.84 2119.8 428.04 2114.06 2342.63 511.33 2347.45 517.08 432.84 2119.8"/><rect class="cls-132" x="1894.3" y="1846.01" width="2496.88" height="7.51" transform="translate(-2212.44 1911.95) rotate(-39.95)"/><rect class="cls-133" x="1891.09" y="1842.18" width="2496.87" height="7.51" transform="translate(-2210.73 1908.96) rotate(-39.95)"/><polygon class="cls-134" points="423.22 2108.31 418.41 2102.55 2333 499.82 2337.81 505.57 423.22 2108.31"/><polygon class="cls-135" points="420 2104.47 415.2 2098.72 2329.79 495.99 2334.61 501.75 420 2104.47"/><rect class="cls-136" x="1881.46" y="1830.68" width="2496.88" height="7.51" transform="translate(-2205.59 1900.12) rotate(-39.95)"/><polygon class="cls-135" points="413.59 2096.8 408.77 2091.04 2323.36 488.32 2328.18 494.06 413.59 2096.8"/><polygon class="cls-137" points="410.38 2092.96 405.56 2087.2 2320.16 484.49 2324.97 490.24 410.38 2092.96"/><polygon class="cls-138" points="407.17 2089.13 402.36 2083.38 2316.95 480.64 2321.75 486.4 407.17 2089.13"/><rect class="cls-139" x="1868.62" y="1815.34" width="2496.87" height="7.51" transform="translate(-2198.73 1888.29) rotate(-39.95)"/><rect class="cls-140" x="1865.41" y="1811.5" width="2496.88" height="7.51" transform="translate(-2197.03 1885.27) rotate(-39.95)"/><polygon class="cls-141" points="397.54 2077.62 392.72 2071.87 2307.3 469.15 2312.13 474.89 397.54 2077.62"/><polygon class="cls-141" points="394.32 2073.78 389.52 2068.04 2304.11 465.31 2308.91 471.06 394.32 2073.78"/><rect class="cls-142" x="1855.78" y="1799.99" width="2496.88" height="7.51" transform="translate(-2191.88 1876.47) rotate(-39.95)"/><rect class="cls-143" x="1852.57" y="1796.16" width="2496.87" height="7.51" transform="translate(-2190.18 1873.44) rotate(-39.95)"/><rect class="cls-143" x="1849.35" y="1792.33" width="2496.88" height="7.51" transform="translate(-2188.79 1868.6) rotate(-39.92)"/><rect class="cls-143" x="1846.15" y="1788.5" width="2496.87" height="7.5" transform="translate(-2187.76 1861.73) rotate(-39.86)"/><polygon class="cls-144" points="378.27 2054.62 373.47 2048.87 2288.05 446.13 2292.87 451.89 378.27 2054.62"/><polygon class="cls-145" points="375.07 2050.78 370.25 2045.03 2284.84 442.3 2289.66 448.04 375.07 2050.78"/><rect class="cls-146" x="1836.52" y="1776.99" width="2496.87" height="7.51" transform="translate(-2181.61 1858.69) rotate(-39.95)"/><polygon class="cls-145" points="368.64 2043.11 363.82 2037.36 2278.42 434.62 2283.24 440.38 368.64 2043.11"/><polygon class="cls-147" points="365.43 2039.27 360.63 2033.52 2275.21 430.8 2280.02 436.55 365.43 2039.27"/><rect class="cls-148" x="1826.88" y="1765.48" width="2496.88" height="7.51" transform="translate(-2176.47 1849.83) rotate(-39.95)"/><polygon class="cls-149" points="359.02 2031.61 354.2 2025.85 2268.79 423.13 2273.61 428.87 359.02 2031.61"/><polygon class="cls-149" points="355.81 2027.76 350.99 2022.02 2265.59 419.29 2270.39 425.04 355.81 2027.76"/><rect class="cls-150" x="1817.25" y="1753.98" width="2496.88" height="7.49" transform="translate(-2172.07 1836.76) rotate(-39.88)"/><rect class="cls-150" x="1814.05" y="1750.14" width="2496.87" height="7.51" transform="translate(-2169.61 1838) rotate(-39.95)"/><rect class="cls-150" x="1810.83" y="1746.31" width="2496.88" height="7.51" transform="translate(-2167.9 1835.04) rotate(-39.95)"/><rect class="cls-151" x="1807.62" y="1742.48" width="2496.87" height="7.51" transform="translate(-2166.2 1832.05) rotate(-39.95)"/><polygon class="cls-152" points="339.75 2008.6 334.94 2002.85 2249.53 400.11 2254.34 405.87 339.75 2008.6"/><polygon class="cls-152" points="336.54 2004.76 331.73 1999.01 2246.32 396.29 2251.14 402.03 336.54 2004.76"/><rect class="cls-153" x="1797.99" y="1730.96" width="2496.87" height="7.51" transform="translate(-2161.05 1823.18) rotate(-39.95)"/><rect class="cls-154" x="1794.78" y="1727.13" width="2496.88" height="7.51" transform="translate(-2159.34 1820.22) rotate(-39.95)"/><polygon class="cls-155" points="326.91 1993.25 322.11 1987.5 2236.69 384.78 2241.5 390.53 326.91 1993.25"/><rect class="cls-156" x="1788.36" y="1719.47" width="2496.88" height="7.5" transform="translate(-2156.31 1812.14) rotate(-39.92)"/><polygon class="cls-157" points="320.5 1985.59 315.68 1979.83 2230.27 377.11 2235.09 382.85 320.5 1985.59"/><polygon class="cls-158" points="317.29 1981.74 312.46 1976 2227.05 373.27 2231.87 379.02 317.29 1981.74"/><polygon class="cls-158" points="314.07 1977.92 309.25 1972.16 2223.85 369.43 2228.66 375.18 314.07 1977.92"/><polygon class="cls-158" points="310.86 1974.08 306.05 1968.32 2220.64 365.6 2225.45 371.36 310.86 1974.08"/><rect class="cls-159" x="1772.31" y="1700.29" width="2496.88" height="7.5" transform="translate(-2147.35 1799.53) rotate(-39.95)"/><rect class="cls-160" x="1769.1" y="1696.45" width="2496.87" height="7.51" transform="translate(-2145.63 1796.6) rotate(-39.95)"/><rect class="cls-160" x="1765.88" y="1692.62" width="2496.88" height="7.51" transform="translate(-2143.62 1795.21) rotate(-39.98)"/><polygon class="cls-161" points="298.02 1958.74 293.21 1952.99 2207.8 350.27 2212.61 356.01 298.02 1958.74"/><polygon class="cls-162" points="294.8 1954.9 290 1949.15 2204.58 346.42 2209.4 352.18 294.8 1954.9"/><rect class="cls-163" x="1756.26" y="1681.11" width="2496.88" height="7.51" transform="translate(-2138.78 1784.78) rotate(-39.95)"/><rect class="cls-163" x="1753.05" y="1677.28" width="2496.87" height="7.51" transform="matrix(0.77, -0.64, 0.64, 0.77, -2137.07, 1781.78)"/><rect class="cls-163" x="1749.84" y="1673.45" width="2496.88" height="7.5" transform="translate(-2136.41 1773.24) rotate(-39.86)"/><polygon class="cls-164" points="281.96 1939.57 277.15 1933.81 2191.74 331.09 2196.57 336.83 281.96 1939.57"/><polygon class="cls-164" points="278.76 1935.73 273.94 1929.99 2188.53 327.25 2193.35 333 278.76 1935.73"/><rect class="cls-165" x="1740.2" y="1661.94" width="2496.88" height="7.51" transform="translate(-2130.21 1769.96) rotate(-39.95)"/><polygon class="cls-166" points="272.33 1928.05 267.52 1922.31 2182.12 319.58 2186.92 325.33 272.33 1928.05"/><polygon class="cls-167" points="269.12 1924.23 264.32 1918.48 2178.91 315.74 2183.71 321.5 269.12 1924.23"/><rect class="cls-168" x="1730.58" y="1650.43" width="2496.87" height="7.51" transform="translate(-2125.07 1761.12) rotate(-39.95)"/><rect class="cls-168" x="1727.36" y="1646.6" width="2496.88" height="7.5" transform="translate(-2123.72 1756.29) rotate(-39.92)"/><polygon class="cls-169" points="259.5 1912.72 254.67 1906.97 2169.26 304.25 2174.08 309.99 259.5 1912.72"/><rect class="cls-170" x="1720.95" y="1638.93" width="2496.87" height="7.5" transform="translate(-2121 1746.73) rotate(-39.86)"/><rect class="cls-170" x="1717.74" y="1635.09" width="2496.88" height="7.51" transform="translate(-2118.58 1747.43) rotate(-39.92)"/><rect class="cls-170" x="1714.53" y="1631.26" width="2496.87" height="7.51" transform="translate(-2116.21 1747.84) rotate(-39.98)"/><rect class="cls-171" x="1711.31" y="1627.43" width="2496.88" height="7.51" transform="translate(-2114.79 1743.38) rotate(-39.95)"/><polygon class="cls-172" points="243.44 1893.54 238.64 1887.79 2153.22 285.07 2158.03 290.81 243.44 1893.54"/><polygon class="cls-173" points="240.23 1889.71 235.42 1883.97 2150.01 281.23 2154.83 286.99 240.23 1889.71"/><rect class="cls-174" x="1701.68" y="1615.92" width="2496.88" height="7.51" transform="translate(-2109.65 1734.51) rotate(-39.95)"/><rect class="cls-175" x="1698.47" y="1612.08" width="2496.87" height="7.51" transform="translate(-2107.94 1731.55) rotate(-39.95)"/><polygon class="cls-176" points="230.6 1878.21 225.78 1872.46 2140.38 269.72 2145.19 275.48 230.6 1878.21"/><rect class="cls-175" x="1692.05" y="1604.42" width="2496.87" height="7.5" transform="translate(-2105.3 1721.68) rotate(-39.88)"/><rect class="cls-177" x="1688.84" y="1600.58" width="2496.88" height="7.51" transform="translate(-2102.8 1722.69) rotate(-39.95)"/><rect class="cls-178" x="1685.63" y="1596.74" width="2496.88" height="7.51" transform="translate(-2101.08 1719.72) rotate(-39.95)"/><polygon class="cls-179" points="217.76 1862.86 0 1602.74 1914.59 0 2132.35 260.14 217.76 1862.86"/></g><path class="cls-180" d="M3257.63,1704l1060.31,2.24c33.12-.65,53.14,9.75,53.46,36.68L4170.1,2891.27c-8.89,50.69-27.8,84.36-88.16,68.79l-70.51-12.87c12,56.23,9.78,91-7.3,115.2-23.21,32.84-78.19,43.26-115.53,55.14-93.75,29.85-161.21,48.54-232,36.28L3380.09,3091c-7-1.59-34.18-6.32-29.32-17.69,5.23-12.21,56.4-20.14,71.27-22.68,101.63-17.34,243.44-34.07,269.7-52.6,29.77-32.14,37.62-67,26.36-104.36l-664.31-121.28c-60.41-11-53.24-36.74-43.34-94.14l183.12-935.39C3200.32,1708.34,3227.49,1705.68,3257.63,1704Z" transform="translate(-1758.21 -538.04)"/><path class="cls-181" d="M3250.3,1773.92l1058.55,2.24L4136.31,2760.4,3073.93,2593.3l160.13-818C3239.19,1774.47,3246.16,1774.14,3250.3,1773.92Z" transform="translate(-1758.21 -538.04)"/><path class="cls-182" d="M3997.49,2944.64c12,55.05,9.73,89.15-7.33,112.8-23.22,32.24-78.2,42.44-115.55,54.09-80.31,25.08-154.69,44-218.84,41.3-1.46,0-2.9-.12-4.34-.21l5.2,1.19c70.76,12.26,138.22-6.43,232-36.28,37.34-11.88,92.32-22.3,115.53-55.14,17.08-24.17,19.33-59,7.3-115.2Z" transform="translate(-1758.21 -538.04)"/><path class="cls-183" d="M3815.13,879c24.73,0,48.06,2.08,64.24,18.58,19.7,18.9,20.91,24.33,55.09,28.18,10.49,1.18,12.31-.22,25,2.94,34.54,8.63,33.34,29.06,47.1,42.92,3.88,3.91,6.43,6.78,10.88,10.27,18.81,14.8,33.44,12.35,51.47,31.81,10.61,13.69,17.66,22.41,17.66,40.4,0,8.15-1.8,15.12-1.8,23.41,0,28.28,17.11,40.47,17.11,65.26,0,16.91-9.46,31.43-9.46,46.37,0,9.28.93,13,3.41,21.79,5.25,18.55,10.1,28.65,10.1,50.68,0,19.46-8.61,45.19-19.1,59.66-5.55,7.67-12.15,14.28-17.55,22.08-2.88,4.16-4.91,7.9-7.54,12.24-5.35,8.81-9.28,17.9-10.75,28.41-1.65,11.7-2.37,22.86-5.77,33.86-5.1,16.48-18.3,36.91-35.68,43.54-10,3.81-20.9,2.65-31.37,1.32-2.08-.26-5.18-.19-7.54-.55-27.78-4.37-31.15,14.24-45.58,25.9-10,8.09-26.15,10.35-39.24,7.15-1.37-.34-2.48-.6-3.94-1s-2.67-.92-4.15-1.26c-1.38,2.85-4.35,19.38-5.15,23.66-2.79,15-4.25,34.16-2.17,49.83l1.47,16.07c1.49-.7,7.93-1.35,10.35-1.35,15.62,0,28,7.56,36.57,16.1,3,3,6.23,5.34,9.11,8.45l22.48,24.78c5.89,7.64,16.56,16.25,24.56,22.24,23.32,17.47,50.49,29.83,77.41,40.52l16.84,6.58a262.39,262.39,0,0,1,39.91,18.6c2.77,1.59,4.9,2.84,7.54,4.62a55.51,55.51,0,0,1,6.74,5c2.11,2,4.06,3.52,6.08,5.63,11.6,12,20.18,29.34,25.48,45.17,1,3,1.85,5.84,2.81,8.9l2.65,9.06c6,23.08,6.75,38.4,6.75,63.93,0,15.88-.46,30.37-.46,46.35s-.91,30.55-.91,46.36l-1.34,33.76c-.15,10.91-3.28,30-6.35,40.46-.64,2.18-2.6,7.38-2.65,9.5l22.64,8.87c6.81,2.88,15.31,7,20.83,11.12,6,4.53,12.13,9.4,15.65,16.32,5.28,10.36,6.15,21,6.15,33.47,0,22.4-14.34,72.91-18.57,94.39-14.34,72.59-40.32,140.92-114.49,168.15-17.7,6.49-36.54,10.22-53.74,10.22-13.42,0-10.33-.89-19,4.85-14.25,9.54-28.79,18.08-45.31,23.57-3.48,1.15-7,2.17-10.86,3.09.23,9.78,23.4,44.31,32,57.16.87,1.3,1.45,2.44,2.42,3.88l4.59,7.11c.85,1.42,1.31,2.27,2.17,3.67l20.54,33.47c1.5,2.53,3,5,4.56,7.59l18,29.72c10.44,17.3,20.94,37,27,56.74a192.58,192.58,0,0,1,4.94,18.93c7.79,39.08,5.16,81.34-3.8,120.73l-864.29-135.94q-1.36-20.51-2.34-41.08c-.92-19.82-1.49-39.64-1.49-59.35,1-68.05,2-136.42,15.35-203.42l3.9-22.21c.72-3.74,1.55-7.3,2.16-11,.25-1.51-2.2-7-2.89-9.23-6-18.91-12.78-37.54-23.82-54-1.8-2.7-3.73-4.9-5.5-7.56-2,1.32-6.14,5.78-14.3,10.89-54.31,34.1-91.26,7-145-27.54-19.89,16.66-37.4,33.3-61.53,43.8-16.24,7.05-32.51,11.57-51.9,11.57-13.91,0-27.78-.77-40.71-3.61-33.5-7.39-53.44-31-70.52-59a90.5,90.5,0,0,1-8.89-18.47c-3.46-10.37-4.56-17.57-4.56-29.22,0-19.23,5.85-41.55,12.81-62.69,11-33.44,17.69-46.44,33.05-77.18l9-18.11c.76-1.54,1.51-2.6,2.26-4,8.3-15.94,16.54-32,26.37-47l19-29.61c21.82-34.67,45.37-66,67.41-100.5,9.37-14,19.11-27.86,27.92-42.3,1-1.54,1.54-2.49,2.45-3.85.79-1.19,1.43-2.42,2.23-3.61l26.31-40.76c1.57-2.6,3.18-4.8,4.85-7.31l14.49-22.41c9.88-14.78,22-33.27,30.16-49,4.92-9.5,9.13-19.07,14.36-28.41l12.46-24c.76-1.55,1.5-2.59,2.26-4s1.27-2.73,2.1-4.2a167.47,167.47,0,0,0,8.11-16.19c1.24-2.89,2.6-5.43,3.8-8.36,1.11-2.73,2.53-5.5,3.84-8.32l8.25-16c21.35-43.39,29.23-36.26,33.28-89.15.31-4,.46-7.71.86-11.29l1.41-28.76c0-2.76.41-3.48.47-5.82.69-23.09-.47-45.73,6.44-66.92,3.4-10.41,7-20.27,13.43-28.89,5.14-6.94,10.17-16.61,14.73-24.43,8.93-15.32,13.92-26.71,20.76-44.06,3.69-9.37,10.34-23.69,17.87-31.18,2.15-2.14,4-3.93,6.09-6.07a56.82,56.82,0,0,1,6.71-5.45c15.44-11.69,52.87-22.79,71.08-26.58a446.41,446.41,0,0,1,46-6.61c.57-6.85,8.24-20,12.07-25.39s8.35-10.87,13.51-14.87c9.26-7.14,16.4-10.82,22.1-12.79,12.43-4.32,29.79-5.69,43.17-8.8-6.89-26.87,16.18-93.75,41-113.37,6.18-4.89,13.13-8.23,20.2-11.77,47.16-23.57,43.17-47.93,72.27-70.4l8.49-7.27c29.92-23.45,55.21-15.84,86.58-24.59,11.78-3.29,13.74-6.84,30.44-9.18,49.16-6.89,43.62,35.82,98,35.82Zm-281.79,374h-35.1c-.11,4.73-4.19,9.6-6.86,12-.87.81-1.57,1.28-2.47,2l-19.84,13.49c-2.1,1.42-3.3,2.6-5.3,4.14a126.68,126.68,0,0,0-10,9.39c-.91.88-1.32,1.36-2.2,2.31-14.3,15.47-22,32.72-28.7,52.76-1.7,5.09-2.56,10-4.06,15.29-6.14,21.6-11.42,34.67-25.13,51.4-5.94,7.24-11.24,13.82-16.19,22.07-7.94,13.26-9.95,22.95-20.1,36.62-14.1,18.18-28.63,34.87-42.81,53-15.9,20.36-25.91,34.27-40.71,54.73-1.61,2.21-23.76,32.11-24.12,33.5,4.78-2.3,28.91-5.14,35.42-6l52.8-3c5.94,0,19.67-1.18,26.1-1.37,4.79-.12,8.8-.5,13.1-.84,12.75-1,36.5-4.12,48-7.86,15.09-5,29.49-12.28,43.69-18.41l13.94-7.23c3-1.62,5.93-3.37,8.79-5.16l20-14.63c1.43-1.19,2.25-2.4,3.67-3.53,6.22-5,11.62-11.44,17.39-16.82l11.1-10.06c.72-.56.93-.9,1.64-1.51.88-.8,1.1-.8,2-1.59l5.4-5c.94-.87,1.1-.82,2-1.59,1.44-1.21,2.31-2.13,3.84-3.36,2.71-2.22,9.21-6.82,12.55-8.16.95-.38,4.91-1.53,4.91-2.3,0-4,.25-15.13-2.35-17.92-52.94-56.07-67.27-147-43.62-218.45a61.07,61.07,0,0,1,3.19-8Zm-105.76-11.25c-3.6-.31-13-4.27-17-5.9-1.94-.8-3.09-1.65-5.46-2.21-1.49,1-6.35,6.81-7.71,8.5l-4.83,6c-.84,1.06-1.55,1.93-2.41,3l-9.5,12.58c-.87,1.15-1.37,2-2.24,3.14-1,1.33-1.32,2.2-2.31,3.55-5,6.78-12.39,19.56-16.93,27.16l-13.6,22.72c-4.12,6.84-7.86,11.58-12,17.82a28.94,28.94,0,0,0,9.85-1.85c2.57-1,4.55-3.24,6.46-5.23,7-7.29,13.21-21.81,17.45-30.27,5.83-11.7,10.07-17.42,17.86-26.71.68-.81.64-.93,1.37-1.76l8.77-8.8c8.74-8.64,19.45-15,30.37-20.49Z" transform="translate(-1758.21 -538.04)"/><path class="cls-184" d="M3700.34,1107.61l-.87-.52Z" transform="translate(-1758.21 -538.04)"/><path class="cls-184" d="M3789,1134.16" transform="translate(-1758.21 -538.04)"/><path class="cls-185" d="M3365.46,1148.58l-21.35,2.5a349.27,349.27,0,0,0-66.8,17.82c-2.56.94-6.2,2.31-8.63,3.52-11.24,5.56-19.42,10.6-27.8,20.82a78.89,78.89,0,0,0-9.42,14.89l-3.67,8c-1.2,2.95-2.47,5.72-3.6,8.57-4,10-8.13,19.8-13,29.34l-6.71,11.75c-4,6.55-9.35,14.4-13.76,21.65a129.46,129.46,0,0,0-11.93,25.21,122,122,0,0,0-5.65,24.43c-1.19,9.41-.72,18.76-1.27,28.89-.11,2.08-.47,2.77-.46,5.39.05,10-.58,19.54-.87,29.73-.11,3.25-.86,8-.94,11.22-.06,2.5-.41,8.68-1,16-3.48,44.69-7.65,45-28.51,81.26-4.12,7.17-8.1,14.44-10.69,19.62-1.48,3-2.57,5.25-3.91,8.25-1.24,2.77-2.51,5.33-3.78,8.37-6.6,15.86-16.5,32.88-24.56,48.35-.72,1.41-1.34,2.18-2.12,3.75s-1.3,2.61-2.1,4.19c-17.27,33.39-28.06,52.92-48.9,84.33-.8,1.19-1.46,2.42-2.26,3.61L2999,1756.14c-.84,1.35-1.36,2.29-2.25,3.59-6.52,9.66-12.38,20-19.33,29.3a36.32,36.32,0,0,0-2.32,3.52c-24.55,38-50.21,74.79-75.17,112.53-.86,1.45-1.39,2.16-2.3,3.55l-16.55,25.75c-5.48,8.69-10.71,17.74-15.38,26.94L2846.93,1997c-13.82,27.66-23,48.25-32.75,77.41-6.45,19.17-12.26,39-12.26,59.88v7.19c0,7.52,2,15.2,4.68,22.1a106.57,106.57,0,0,0,8,16.09c15.89,26.24,33.81,47.5,65.14,54.68a159.32,159.32,0,0,0,39.07,3.6,129.77,129.77,0,0,0,28.14-3.65c4.11-1.05,7.83-2.22,11.77-3.52,4.13-1.36,7.39-2.86,11.28-4.48,16.3-6.78,41.61-25.37,54.61-38.56a908.84,908.84,0,0,0,64.23-67.33c14.48-16.88,27.12-33.65,40.5-52.55.9-1.34,3.91-4.82,2.27-7.57-.93-4.44-21.48-46.87-23.46-50.83-1.79-3.55-3.43-6.77-5.11-10.2-1.2-2.41-4.41-8.49-4.94-10.81-1.3,1-4.72,15-5.25,16.81a297.77,297.77,0,0,1-12,32.55c-6.27,14-13.67,33.29-19.4,47.68-.75,1.85-2.58,6.56-3.79,7.48-2.75,2.1-5.8-.67-5.07-3.69,1.36-5.6,7-18.18,9.49-23.87,3.68-8.31,12.74-30.41,16-39.76,3.95-11.16,8.13-21.61,11.48-33.09,1.65-5.68,3.09-11.94,4.95-17.55,7.6-22.76,14.38-46.08,20.21-69.37,3-12.1,5.79-23.67,9.09-35.46,3.21-11.46,6.69-22.85,9.9-34.67,2.81-10.36,5.65-21.07,8.65-31.82,9-32.44,17.85-56.49,33.51-86l6.66-12.55c7.82-14.66,15.72-28.6,24.82-42.25l18.28-26.28c3.29-4.51,6.26-8.48,9.53-13l4.42-6.38c7.84-10.91,16.23-21.35,23.85-32.42l46.54-62.14c14.62-19.51,32.84-38,45.54-57.79,4.52-7,7.67-14.82,11.42-22.33,6.69-13.38,14.14-21.63,22.56-32.81a122.82,122.82,0,0,0,16.59-28.42c5.68-13.39,8-29,13-42.84,1-2.77,2-5.25,3.23-8s2.23-5.31,3.48-7.78l5.7-11a94.28,94.28,0,0,1,11.74-16.6,152.33,152.33,0,0,1,23.19-21.38c3.73-2.79,25.08-14.19,25.08-19.93,0-1.76-1.44-1.28-3.09-1.4-9.74-.72-19.61-1.35-29.21-3.22-4.93-1-10.31-1.85-15.33-3.12-8.54-2.15-18.83,4.42-26,8.83a123.24,123.24,0,0,0-25.51,21.3,142,142,0,0,0-13.93,18.47c-.64,1-1,1.86-1.62,2.9-9.7,16-16,43.14-37.63,46.54-2.87.44-5.19.47-8.11.88-5.51.8-3.37-1-7.27,2.19-1.94,1.56-8.76,7.91-11,7.91-3,0-6.17-3.33-.66-7.4,1.48-1.09,2.51-2,3.81-3l6.86-6.18a68.57,68.57,0,0,0,6.38-6.69,121.11,121.11,0,0,0,10.74-15.71l9.75-16.46c4.88-8.15,9.66-16.88,14.88-24.73,3.48-5.26,6.87-10.83,10.67-15.88,2-2.6,3.67-4.88,5.59-7.46s17.57-20.26,17.94-21.67a81.63,81.63,0,0,1-9.63-6.12c-3.8-2.63-5.35-5-8.37-7.83-10.81,5.73-23.29,15-32.79,22.57L3328.69,1254c-6.42,5.2-12.74,10.43-19.5,15.17-5.65,4-14.91,10.19-19.7,15-4.15,4.13-6.31,5.67-10.39,10.77s-5.51,6.54-8.68,12.45l-4.73,8.8c-2.63,5.46-7.19,3.5-7.17-.14,0-3.29,5.29-11.78,6.93-14.51a74.79,74.79,0,0,1,6-8.4c11.49-14.5,24.25-22.59,38.9-33.57l32.22-25.4a251.49,251.49,0,0,1,25.4-17.82l9.2-5.64c-5.53-6.89-9.69-16.9-11.64-26-3.78.31-35.41,13.08-39.29,14.64a194.46,194.46,0,0,0-23.2,11c-13,7.28-16.46,10.21-28,20.63-1.38,1.1-2.36,1.94-3.74,3-11.69,9.27-24,17.89-36.39,26.17-1.41.93-2.6,1.73-4,2.77-.46.35-1.52,1.13-2.53,1.76-3.93,2.39-7.35-1.67-3.12-5.48a44,44,0,0,1,5.05-3.64c1.52-1,2.73-2.07,4.13-3.06l20.62-15c5.74-3.89,10.59-8.18,15.91-12.45,12.2-9.76,14.59-13.91,29.75-21.71,7.78-4,16.7-8.15,23-10.64l30.68-11.63c3.41-1.32,7.39-2.25,10.6-3.8-1.6-6.93-1.19-15.85-.41-22.92.21-1.93.81-3.93.87-5.88Zm364.59-33.76a15.91,15.91,0,0,1,13.51-8.11c3.32,0,10.15,6.16,14.4,9,3.88-7.33,9.26-8.49,17.08-7.64,10.35,1.15,12.4,7.63,16.53,15.88.8,1.57,1.23,2.92,1.94,4.37.6,1.23,5.48,11.14,6.8,12.55,2.66,2.82,24.46,12.55,30.12,15.34,8.77,4.31,28.47,15.65,35.66,22.86l8.37,7.83a7.12,7.12,0,0,0,1.88,1.72c2.17-9.31,2.16-23-2.1-31.22-3.12-6.09-9.42-11.61-14-16.59-9.14-10-20.75-24.44-24-37.69a71.88,71.88,0,0,1-1.42-8.94c-.67-5.82,1.44-4-14.06-6.64-22.47-3.77-26.62-2.53-51.87-9.8-5.51-1.57-10.79-3.23-16-4.69-5.49-1.55-10.52-3-15.94-4.77-2.71-.88-4.74-1.66-7.3-2.6-11.83-4.38-35.34-14.28-43.85-23.21-1-1.06-1.45-2.07-2.58-2.83-1.2.32-2.66,1.62-3.86,2.43l-16.71,9.86c-1.72.81-3.07,1.34-4.63,2.12a100.27,100.27,0,0,1-9.51,4l-40.45,12.64,17.35,3.35c12.92,2.83,34.31,9.83,47.28,14.84,14.84,5.76,29.76,10.89,43.77,18.35l13.57,7.58Zm59,19.34c-2.44-.57-16.65-9.19-19-10.71l-6.21-3.69c1.77-6.64,13.39-6,16.74-1.88,1.84,2.25,8,14.24,8.47,16.28Zm1.8,67.53c.38,1.43,3,4,4.12,5.34l26.49,32.91c1.25,1.64,2.88,4.32,4.5,5.41,0-8.93-5.19-21.14-11.59-27.58a59.18,59.18,0,0,0-11.35-8.45c-2-1.18-4-2.48-6-3.85l-6.12-3.78Zm7.2,147.64c0-5.47-.11-10.51-.44-15.33-.18-2.66-.57-5-.84-7.26a120.38,120.38,0,0,1-1-14.77c0-4,.07-4-1.15-7-4.12-10.1-12.66-21.38-17.89-30.28l-12-19.93c-1.64,0-.74.21-2.14.18l-7.33.24c-3.15.09-7.1.9-10.32.94a35.66,35.66,0,0,0-5,.36l-15.69,1c1,1.33,6.34,4.71,8.36,7,3.52,3.87,5.81,5.81,9.23,11.48a119.25,119.25,0,0,1,8.52,17.58c1.85,4.64,3.55,10.71,5,15.75l4.66,16c2.45,7.48,4.07,15.38,12.72,18.35,8.86,3.06,10.9,1.56,17.46,3.24,2.42.61,6.17,2.3,7.92,2.44ZM3650.84,1253l-14.79-.52c-12.75-1.41-19.86-2.57-31.43-7.73-7.67-3.42-4.18-3-10.79-1-12,3.54-36.55,8-48.32,8.39-4.8.18-4.51.53-5.19,2l-4,10.4c-24.94,71.37-7.26,164.68,49.12,217.25,14.36,14.38,31.53,25.56,53.23,25.56,10.5,0,13.82-.07,24.57-2,4.93-.9,47-11.77,47-15.12a13.88,13.88,0,0,0-1.07-3.89,236.15,236.15,0,0,1-6.71-30.19c-.9-5.35-3.93-32.76-3.93-37.94-3,.08-12.09,3.15-29.25,3.15-38.11,0-83.28-23.16-93.19-62.1-4.2-16.51-.91-14.72,8.88-18.6,14.75-5.84,44.68-13.46,60.45-9.33,10.9,2.86,1.56,2.86,13.68,1.1,10.15-1.48,18-.85,27.14,4,1.67.89,2.57,1.7,4.19,2.56a24.19,24.19,0,0,0-2.07-7l-5.32-13.58c-.52-1.25-.9-1.85-1.47-3-2-4.31-10-22-12.5-24.86a8.81,8.81,0,0,0-1.15-1.1c-.89-.89-.12-.46-1.35-1.36-11,9.59-13.21,14.15-32.7,4.36-14.23-7.16-21.72-2.71-27.75-8.73-4.65-4.65-4.4-13.63.14-13.63,6.28,0,1.09,7.7,6.47,9.73,1.57.58,5.18.86,7,1.08,19.53,2.09,27.31,16.49,38.33,6.36,1.06-1,1.06-1.58,2.3-2.64a8.32,8.32,0,0,1,3.49-1.94c-.61-2.24-13.51-16.85-13.51-26.55a16.14,16.14,0,0,1,.46-3.15Zm-68,240.81c0-2.5-.46-2.66-.46-4.94,2.36,1.57,3.46,3.09,5.59,4.76,6.18,4.79,10.89,9.12,18.27,12.79,30.19,15,61.32,6.54,91.09-3.43l15.14-6c.64,2.77,1.83,6.2,2.75,9s1.82,5.44,2.81,8.43c2,6,3.85,11.21,5.85,17.11s4.26,10.91,6.4,16.56c9.64,25.34,16.81,41.46,21.41,69.51.52,3.14,1,6.2,1.54,9.72a66.24,66.24,0,0,1,1.11,10.14,87.1,87.1,0,0,0-32.35,5.92c-8.39,3.19-15.63,8-23.33,12.25-2,1.12-3.66,2.2-5.69,3.29s-3.72,2-5.85,3.17l-14,8c-1.07.71-1.61,1.13-2.71,1.8-6.51,4-10.59,8-15.11,11-.18-2.28-6.45-15.1-7.83-17.37a89.6,89.6,0,0,0-5-7.58c-10.31-12.62-17.48-21.13-31.79-30.33-9.35-6-19.72-10.07-30.15-14-1.31-.49-3.25-.92-4.37-1.47-3.49-1.7-13.56-27.88-13.56-36,0-3.44-.08-3.53,1.5-6.61a277.22,277.22,0,0,0,12.73-30.47,97.57,97.57,0,0,0,4.3-20.46,179.5,179.5,0,0,0,1.73-24.84ZM4054.13,2052l8,1c12.84,2,26.15,3.57,38.87,6.14,8,1.6,12.35.76,13,4.57,3.92,46.34,2.14,82.4-8.69,129.87-12.14,53.16-28.35,108.31-61.62,152.63-11.87,15.81-20.67,25.13-36.24,35.32-3.72,2.51-7.39,4.41-11.26,6.75a132.08,132.08,0,0,1-37.44,15.69c-28.22,6.82-49.67,4.71-75.42-7.33-24.16-11.33-30.71-26.9-40.09-50.41q-5.88-14.7-10.59-29.85-3.54-11.35-6.43-23c-4.79-19.25-10.33-37.19-15.21-56.35-7.33-28.84-17.33-54.37-21.54-85.15-2.55-18.61-5.3-37.46-6.76-56.24-1.9-24.37-5.8-47.64-8.11-71.56-5.68-58.83-8.07-112-8.07-171.09,0-43.87-2.69-87.89-2.12-131.26.12-8.36.33-16.64.79-25.37.2-22.49.11-28.59-2.41-51.11-3.34-29.81-8.6-56.18-20-84.46-10.51-26-19.5-52.45-27.91-79.2l-1.59-7.42c-4-17.81-3.78-21.39-6-38.57a141.93,141.93,0,0,1-1.47-16.54l-1.94-33.62c-2-15.45-2.41-32.6-6.28-47.74a135.84,135.84,0,0,0-9.81-25.75c-1-2-1.76-4-2.84-6.15-5.6-11.13-8.66-17.62-15.78-28.33-1.9-2.86-8.88-11.1-11.27-17.75-2.83-7.94,3.62-10.25,10.21-10.17a145.89,145.89,0,0,1,19.32,2c13.37,2.26,22.84,4.77,32.78,11.78,12.81,9.05,20.72,22.44,25.26,37.29,1.38,4.52,2.57,9.33,4,14,4.8,15,5.47,28,18.57,34.57a35.24,35.24,0,0,0,14.25,3.73,32.76,32.76,0,0,1,13.95,3.61,31.16,31.16,0,0,1-4,8.56c-2.33,3.49-4.06,4-4.06,8.54,1.06.7,1.88,1.81,3.54,1.66,3.33-.25,5.8-5.37,7.36-7.86,11.08-17.65,3.92-34.94,4-53.21,0-4.15.28-6.37-.88-9.46-4.38-11.56-11.91-22.38-18.75-32.59-8.33-12.43-14.69-26.36-22.42-39.23-2.71-4.5-5.14-8.45-7.82-12.88-3.8-6.3-7.29-13.14-11.34-19.28-9.07-13.69-22.07-36.18-15.32-52.67,2.17-5.35,11.06-4.8,14.32-1.69,5.37,5.1,13.45,18.14,17.37,24,8.07,12.13,17.28,23.55,26.32,34.89l14,17.05c1.45,1.87,2.88,3.57,4.43,5.46l7,8.76c.87,1.11,1.33,1.61,2.2,2.76,13.68,18.39,26.4,35.3,38.75,54.46l7.74,12c1.89,2.75,6.34,11.15,10,10.56,5.5-.85,1.18-6.75-.52-9.21l-6.24-9a70.3,70.3,0,0,1-4.12-6.25c-7-11.43-16.36-23.55-22.6-34.11-.83-1.39-2.62-21.32-6-29.61-3.87-9.64-10.11-16.72-18.61-22.35-8.2-5.44-17.35-10.22-25.25-16.16-4.85-3.66-4.21-3.33-8.29-7.45-3.85-3.89-3.08-1.91-7.52-7.79s-8.16-12.29-12.49-18.14c-3.72-5-8.93-13.13-14.06-16.52-3.55-2.35-3.87-.26-6.11-4.26-.42-.75-1-1.79-1.48-2.89-2-4.17-2.36-9.48-.38-13.61,2.8-5.83,7-7.15,12.15-3.23a281.38,281.38,0,0,0,24.56,16.85l39.12,22.1c16.22,8.11,25.37,11.6,40.17,21.47a104.43,104.43,0,0,1,24.29,22.09l6.08,8.78c9,15.61,16.81,43.67,21,60.88,5.63,22.88,14.75,41.35,16.71,65.64,2.92,35.93-34.08,101.56-44,140.06-8.71,33.83-15.23,61.77-11.42,98.1l1.3,12.74c1.35,13.08,2.68,23.64,5.79,36.6,3.68,15.37,8.81,33,12.27,43.82l15.75,51.77c4.4,13.85,9.32,27.66,14.6,41.22,7.31,18.75,16.83,40.29,23.44,58.93,1.86,5.21,3.89,9.84,5.74,15,6.9,19.08,14.67,40.16,23.51,58.42.67,1.38,1,2.49,1.64,3.75s.9,1.86,1.54,3.41c1,2.37,2,4.5,3.13,6.78,1.77,3.69,3.36,7.51,5,11.31,1.47,3.43,2.93,6.86,4.62,10.16l65.29,126.26c10.56,20.41,20.24,40.43,25.94,59.78,3.24,11,5.64,21.82,7.8,33.15.52,2.7,2.09,5.84,5,4.28,2.3-1.24,2.22-4.53,1.69-7.78a210.78,210.78,0,0,0-8.14-32.82c-5.85-17.42-14-33.39-22.24-49.8C4056.43,2057,4054.56,2053.79,4054.13,2052Z" transform="translate(-1758.21 -538.04)"/><path class="cls-185" d="M3430.73,1092.77c-17.32,0-32.41,11.34-43.08,24-7.8,9.23-14.13,24.64-15.76,36.91-3.11,23.4,3.76,49.8,25,62.52,16.59,10,33.59,8,50.06-.54,8.31-4.31,16.32-12.35,21.85-20,26.52-36.67,18.38-102.89-38.06-102.89Zm330.83,155.73c-.38-1.65-3.21-6.17-4.24-7.91-5.93-10.1-13-21-18.43-31.1-2.59-4.82-13.45-19.86-13.79-24-1.48,1.08-.3-.64-1.52,4.33-.43,1.73-.74,3.08-1.23,4.62a102,102,0,0,1-22.11,38.66l-12.95,11.36a102.51,102.51,0,0,1,17.16,3.54c7.59,2.38,7.88,3.4,17.12,2.38,1.61-.19,3.25,0,4.85-.09l35.14-1.78Zm-131-22.51c-36.37,0-66.15-33.16-66.15-68.87,0-70.36,87.78-86.76,118.22-21.46,18.67,40.07-5.86,90.33-52.07,90.33Zm69.77-118.38c.33.47.92,1.46,1.29,1.87,5.5,6.06,5.92,6,11.44,13.31,2.95,3.89,9.07,13.12,10.23,18.14a10.31,10.31,0,0,1,6.75-3.16c-4-7.55-3.15-9.36-3.15-16.65-6.55-3.47-10.5-6.33-19.2-10.51-1.3-.62-2.15-.87-3.45-1.5a15.4,15.4,0,0,0-3.91-1.5Zm-179.14,45.91,31.55,4.53c-3,28,18.15,59.86,37.16,79.46-7.76,2.37-26.46,5.86-36.18,6.61a563.72,563.72,0,0,1-73.49.78c-4.88-.25-11-1.45-15.31-1.8,24.05-9.89,54.77-25.48,56.27-89.58Zm72.46-77.86c-3.09,2.69-6.58,4.65-11.65,9.5l-.46.44c-12.18,12.75-18.18,24.15-23.84,41-2,5.83-4.56,16.78-4.56,24.26a124,124,0,0,1-32-4.5c-4.12-29.69-15.86-42.87-34.21-64.37,5-1.16,10.67-2,16-2.89,28.83-4.78,41.36-7.56,70.88-5.24,3.68.3,6.53.24,10.07.74Z" transform="translate(-1758.21 -538.04)"/><path class="cls-184" d="M3790.82,1201.69" transform="translate(-1758.21 -538.04)"/><path class="cls-185" d="M3697.19,1393.45c0-4-.77-7.83-.88-11.71-.14-4.17-1.11-4.1-3.48-6-15.73-15.35-53.16-24.14-90.51-15.43C3627.36,1397.7,3654.67,1393.45,3697.19,1393.45Z" transform="translate(-1758.21 -538.04)"/><path class="cls-182" d="M3575.66,1505.06c-2.81.24-8.78,4.91-11,6.56L3544,1530.17a27.12,27.12,0,0,1-2.46,2l-27,25.63a132.26,132.26,0,0,1-15.52,11.51,261.41,261.41,0,0,1-28,15.67c-2.72,1.32-2.49,2.56-3.63,5.37-3.94,9.8-7,24.76-8.56,35.56-1,6.88-1.2,17.52-2,24.57-.73,6.46-.52,24.11-.52,31,0,9.25,1.41,18.37,2.77,26.49,1.09,6.6,2.94,19.38,5.33,24.37a42.43,42.43,0,0,0,3.21-3.54l3.23-3.53c2.34-2.72,12.49-10.37,15.37-12.53,16.8-12.65,29.65-22.76,41.13-41.69,4.58-7.55,9.29-19.44,13.88-28a75.76,75.76,0,0,1,8-12.72,61.3,61.3,0,0,1,19.16-15.94c-.73-3.17-13-23.2-13-40,0-4.33,7.45-18.77,9.58-23.74,5.82-13.54,7.73-20.47,9.41-35.6.17-1.53.83-9,1.27-10Zm180.15,142.6c2,21.93,2.89,31.63,1.69,53.66-.36,6.81-.48,13.62-.46,20.45.13,44.22,2.68,85.83,2.1,131-.67,53.3,2.68,106,7,159.08,2.38,28.33,7.09,56.64,9.81,85.15.66,6.86.73,12.26,1.6,18.68s1.57,12.81,2.37,18.79c2.45,18.55,4.77,36.09,9.89,53.58,1.6,5.52,3.1,10.93,4.56,16.14,7.65,27.49,15.76,55.21,23.05,82.72,2.63,9.9,5.2,20,8.12,29.86a308.53,308.53,0,0,0,12.44,33.46c12,28.14,14.71,39.19,43.19,53,21.37,10.35,34,12.54,57.8,10.69,3.72-.29,9.92-1.38,13-1.38a41.77,41.77,0,0,1,1.51,4.79c.52,1.64,1.05,3,1.56,4.28,4.51,11,10.84,20.64,17,30.72,1.62,2.66,3,4.53,4.55,7.16,2.95,5,6.35,9.44,9.41,14.45l6.95,11.07c.78,1.19,1.45,2.4,2.25,3.59l9.07,14.77c3.19,4.91,6,9.82,9,14.86l31.15,52.11c10.27,17.31,19.35,39.5,23.33,59.49,7.73,38.82,4.8,80.5-3.72,119.24l-556.12-87.46.22-6c.12-1.57-.05-3.35,0-4.94l1.11-19.16c.49-3.28-.06-6.75.39-10,.68-63.76,2.57-128.16,2.57-191.87,0-7,.44-13,.44-20.26,0-6.76,0-13.5,0-20.25,0-26.95,1.38-53.86,1.36-81-.06-51.51,4.16-109.22,7.71-164.19,1.73-26.72,2.57-54.22,5.65-80.81,3-26.09,7.56-51.94,11.59-78,4.31-28,7.24-61.22,13.66-88.49,3.95-16.73,8.1-32.26,13.42-48.25,5.06-15.11,10.25-30,16.5-44.72a337.76,337.76,0,0,1,21.06-40.6,283.55,283.55,0,0,1,16.24-24.72c3-3.93,5.63-7.65,8.63-11.64,2.17-2.91,10.51-14.56,17.45-23.63,8.37-11,17.09-18.49,28.86-25.81,8.1-5,17.22-9.82,23.91-13.56,16.46-9.21,31-19.49,52.07-19.49,4.63,0,4.63-1.18,5.06,3.5Zm148.89,63.56c13.68-3.18,39.79-22.74,50.47-31.45l9.58-8.88c2.74-3.56,4.52-3.73,8.36-11L3952,1642.3l-27.58-30a11.17,11.17,0,0,0-2.7-2.7l-7.9-7.42c-1.17-1-1.66-1.47-3-2.44-10.33-7.63-14.66-11.83-30.49-11.83a32.79,32.79,0,0,0-7.64.91c1.26,11.72,2.31,20,5.24,31.54,6.4,25.13,18.43,66.07,24.3,83.4.83,2.47,1.44,5.44,2.42,7.49Zm308.78,392c0-8.25-.3-13-2.3-19.3-2.77-8.68-6.81-13.72-13.39-19-6.26-5.06-13-8.46-20.65-11.76s-15.55-5.91-23.21-9.2c-22.25-9.52-39.14-25-57.93-39.74a63.06,63.06,0,0,0-6.2-4.6c-2-1.23-6.3-1.54-5.26-5,2.46-8.1,21.93,9.37,25.86,12.31l12.09,9.52a172.35,172.35,0,0,0,22.59,15.21,15,15,0,0,0,4,1.84l4.17-16.55a263.67,263.67,0,0,0,4.39-37.47l.89-35.57c.06-2.27.44-2.5.47-4.93l.63-41.23c.63-4.16-.09-6.16-.21-9.64-.08-2.3.41-3.43.41-5,0-23.34,1-50.65-3.35-72.65-4.26-21.53-15.81-55.89-32-71.93-12.31-12.17-28-19-43.48-26.29-2.85-1.34-5.36-2.18-8.25-3.47-11-4.92-22-8.79-33.14-13.22-2.86-1.14-5.14-2.2-7.91-3.35L4010,1682c-9.55-5-19.22-10-28.11-16-1.4-.94-2.1-1.69-3.78-2.07a51.34,51.34,0,0,1-8,10.91,71.18,71.18,0,0,1-5.87,6.26c-8.51,7.16-17.05,14.25-26.36,20.47-6.89,4.57-23.18,14.58-30.88,16.37.3,3.7,3.92,12.38,5.22,16.38,1.82,5.5,3.81,10.43,5.75,15.86,5.65,15.84,12.25,30.77,18.48,46.35l23.71,62.7c3.27,9.79,8.73,20.55,13.15,30,2.36,5.07,4.33,9.83,6.75,14.87,1.82,3.26,3.37,6.76,5.11,10.26l59.55,120c6.28,10.89,2.91,10,9.87,10.81,6.23.71,12.66,1.91,19,2.63,27.81,3.19,101,10.55,118,22.93s13,19.63,22,32.48ZM3460,1590.59c-1.06,2.19-1.91,6.11-2.65,8.6-4.78,16.4-6.32,31.78-7.24,49l-.58,10.67a84.83,84.83,0,0,0-.34,10.48c0,20.34.91,26.63,4.12,46.3.84,5.11,4.13,28.51,12,25.71,2.15-.75,5.52-5.59,7.38-7.52,1-1,1.13-1.6,2-2.47,6.46-6.4,14.2-11.73,21.52-17.2l13.36-11,12.15-12.59c8-7.85,13.53-19.31,18.64-29.53,1.19-2.37,2-4.37,3.15-6.74,2.16-4.31,4.06-8.74,6.54-12.83a90.42,90.42,0,0,1,8.28-11.1c1.28-1.52,3.28-3.08,4.8-4.63,2.15-2.19,8.57-6.86,12.49-6.86,1.45,0,11.48,4.18,13.06,4.94,10.11,4.92,19.31,9.86,28.17,16.85,7.1,5.62,15.61,15.29,21.15,23,3.44,4.75,11.45,19.45,11.45,24.12l-8.7,11.11c-17.88,24.14-28.95,37-44.79,63.24-14.09,23.28-24.7,48.31-33.33,74.24q-2.51,7.53-5,14.86c-17.66,52.92-19.1,94.46-28.16,148.28-1.9,11.34-3.9,22.57-5.52,33.64-1.49,10.19-2.67,20.38-3.75,30.62-2.87,26.75-4,52.52-5.42,79.32-2.94,55.58-7.44,110-8,165.9-.09,9.93-.11,18.5-.11,20.64,0,26.13-1.34,50.6-1.34,77l-.22,22.21c-.4,44.49-1.59,88.5-1.59,133.08,0,13.44-.44,25.47-.44,38.71l-.46,9.45c-.17,3.2.18,6.69,0,9.9-.09,2-.43,2.16-.46,4.49l-.44,9.44c-.05,1.49.07,3.07,0,4.55-.07,2.22-.42,2.24-.48,4.47l-.69,17.48-286.45-45c-.72-14.16-1.3-28.46-2.19-42.48-1.41-22.08-1.85-44.21-1.88-66.33,0-4.82.46-8.06.44-13.05.78-69.9,4.24-119.7,15.71-187.75,1.31-7.81,2.57-15.43,4.07-22.94L3240,2238c2.89-14.58,5.63-31,7.85-46.16,2.32-16,5.34-30.71,8-46.49,5.25-31.37,9.17-63.08,14-94.46,1.27-8.17,1.94-15.62,3-24,1.55-11.86,2.81-46.4,1-58.82-1.64-11.09-.86-24.57-4.17-35.15-2-6.36-7.41-6.1-6,1.69l3.29,35.43c.06,7.38.89,15.62.89,23l-1,22.88-5.38,42.8c-1.86,13.72-4.54,27.75-6.19,41.51-3.29,27.49-8.65,55.35-13.19,82.68-2.24,13.41-4,28.06-6.57,41.14l-8.22,39.5-6-17.43c-6.26-15.93-13.33-32.14-24.63-45.15.86-1.27,1.85-2.46,2.9-3.85,14.85-22.27,23.69-44.4,30.23-70.58,3.25-13,6.57-32.58,6.94-46.64.09-4.1.69-8.72.88-12.59l1-26c1-7,.32-16.13.32-23.53,0-4.89.23-9-4.5-9-4.48,0-2.19,25.52-2.72,31.94l-1.35,24.3c-.06,8-.87,16.19-1.7,24-1.61,15-3.79,29.63-7.9,43.43-6.6,22.3-16.72,52.08-33.7,68.92a65.44,65.44,0,0,1-14.44,11.2c-1.88,1-3.64,2.37-5.69,2.86.41-1.79,1-2.92,1.43-4.85,4.26-16.56,1.84-36.53-1.17-52.57A475,475,0,0,0,3151,2094c-2.75-8.19-5-15.8-8.12-23.85-1.56-4-2.82-7.71-4.5-11.68l-9.71-22.26c-7.33-16.45-15.88-32.11-23.85-48.16-2.42-4.85-5.16-6.69-3.68-10.87,5-14,9.19-28.69,13.23-43.05l34-126.18c11.2-37.77,16.76-55.84,34.11-87.78l13.5-24.86a422.4,422.4,0,0,1,31.28-48.83c4.53-6.09,9.21-12.25,13.34-18.63,1.83-2.8,1.5-2.13,4.72-3.36,6.35-2.47,12.57-3.57,19.48-4.82a284.54,284.54,0,0,1,28.53-3.45l15.27-.93c4.41-.49,10.57-.28,15-.77,2.53-.29,5.46.13,8-.09,8.77-.72,32.19-1.31,38-2.11,5.25-.7,9.9-.5,15-1.21,9.7-1.33,18.67-2.28,27.84-4.12,15.47-3.12,28.19-8,42.11-14.15C3456.24,1592.09,3457.88,1590.76,3460,1590.59Z" transform="translate(-1758.21 -538.04)"/></g></svg>