<svg width="34" height="34" viewBox="0 0 34 34" fill="none" xmlns="http://www.w3.org/2000/svg">
<g clip-path="url(#clip0_66_3953)">
<path d="M33.9823 17.3422C33.9823 15.9902 33.8666 15.0036 33.6163 13.9805H17.3389V20.0827H26.8933C26.7008 21.5992 25.6606 23.883 23.3489 25.4176L23.3165 25.6219L28.4632 29.4034L28.8197 29.4372C32.0944 26.5687 33.9823 22.3482 33.9823 17.3422Z" fill="#4285F4"/>
<path d="M17.3382 33.4202C22.0191 33.4202 25.9488 31.9585 28.8191 29.4373L23.3483 25.4177C21.8843 26.386 19.9195 27.062 17.3382 27.062C12.7536 27.062 8.8625 24.1937 7.47541 20.229L7.2721 20.2454L1.92057 24.1735L1.85059 24.358C4.70151 29.7295 10.5575 33.4202 17.3382 33.4202Z" fill="white"/>
<path d="M7.476 20.229C7.11001 19.2059 6.8982 18.1096 6.8982 16.9769C6.8982 15.8441 7.11001 14.7479 7.45675 13.7248L7.44705 13.5069L2.02846 9.51562L1.85118 9.59561C0.676173 11.8246 0.00195312 14.3277 0.00195312 16.9769C0.00195312 19.6261 0.676173 22.1291 1.85118 24.3581L7.476 20.229Z" fill="#FBBC05"/>
<path d="M17.3383 6.89173C20.5937 6.89173 22.7896 8.22546 24.0418 9.34003L28.9346 4.80895C25.9297 2.15976 22.0191 0.533691 17.3383 0.533691C10.5575 0.533691 4.70151 4.22427 1.85059 9.59571L7.45616 13.7249C8.8625 9.76021 12.7536 6.89173 17.3383 6.89173Z" fill="#EB4335"/>
</g>
<defs>
<clipPath id="clip0_66_3953">
<rect width="34" height="33" fill="white" transform="translate(0 0.533691)"/>
</clipPath>
</defs>
</svg>
