<svg width="92" height="20" viewBox="0 0 92 20" fill="none" xmlns="http://www.w3.org/2000/svg">
<path d="M0.5 14.1322C0.5 17.2822 2.425 19.6072 6.175 19.6072C9.65 19.6072 11.9 17.4072 11.9 14.1822V1.00723H8.7V14.0072C8.7 15.6072 7.95 16.6322 6.15 16.6322C4.35 16.6322 3.575 15.5322 3.575 14.1322V13.0572H0.5V14.1322ZM14.6439 13.0822C14.6439 16.9322 17.4189 19.5822 21.2439 19.5822C25.0689 19.5822 27.8439 16.9322 27.8439 13.0822C27.8439 9.23223 25.0689 6.58223 21.2439 6.58223C17.4189 6.58223 14.6439 9.23223 14.6439 13.0822ZM17.6939 13.0822C17.6939 10.8322 19.1439 9.30723 21.2439 9.30723C23.3439 9.30723 24.7939 10.8322 24.7939 13.0822C24.7939 15.3322 23.3439 16.8572 21.2439 16.8572C19.1439 16.8572 17.6939 15.3322 17.6939 13.0822ZM33.3365 19.2822V0.682226H30.3115V19.2822H33.3365ZM39.6109 19.2822V0.682226H36.5859V19.2822H39.6109ZM42.0854 13.0822C42.0854 16.9322 44.8604 19.5822 48.6854 19.5822C52.5104 19.5822 55.2854 16.9322 55.2854 13.0822C55.2854 9.23223 52.5104 6.58223 48.6854 6.58223C44.8604 6.58223 42.0854 9.23223 42.0854 13.0822ZM45.1354 13.0822C45.1354 10.8322 46.5854 9.30723 48.6854 9.30723C50.7854 9.30723 52.2354 10.8322 52.2354 13.0822C52.2354 15.3322 50.7854 16.8572 48.6854 16.8572C46.5854 16.8572 45.1354 15.3322 45.1354 13.0822ZM56.4291 6.93223V9.48223H58.2041V19.2822H61.2291V9.48223H64.1791V6.93223H61.2291V5.43223C61.2291 4.20723 61.6041 3.40723 63.1541 3.40723H64.2291V0.807226C63.7041 0.707226 63.1291 0.682226 62.6541 0.682226C59.9791 0.682226 58.2041 2.08223 58.2041 5.43223V6.93223H56.4291Z" fill="#F0CF7B"/>
<path d="M68.1758 19.5822C69.2758 19.5822 70.2008 18.6822 70.2008 17.6072C70.2008 16.5072 69.2758 15.6072 68.1758 15.6072C67.0758 15.6072 66.1508 16.5072 66.1508 17.6072C66.1508 18.6822 67.0758 19.5822 68.1758 19.5822ZM76.9512 19.2822V12.7322C76.9512 10.4572 76.9262 8.73223 76.7512 7.63223L81.3762 19.2822H84.3262L88.9762 7.60723C88.8012 8.90723 88.8012 9.98223 88.8012 13.6572V19.2822H91.9012V1.00723H88.7512L82.8512 15.5572L76.9512 1.00723H73.8512V19.2822H76.9512Z" fill="white"/>
</svg>
