<svg width="34" height="43" viewBox="0 0 34 43" fill="none" xmlns="http://www.w3.org/2000/svg">
<path d="M32.9141 14.8529C32.6719 15.0419 28.3953 17.4656 28.3953 22.8547C28.3953 29.0881 33.8371 31.2934 34 31.348C33.9749 31.4824 33.1355 34.3681 31.1308 37.3084C29.3433 39.8958 27.4765 42.4791 24.6365 42.4791C21.7966 42.4791 21.0657 40.8199 17.7873 40.8199C14.5923 40.8199 13.4563 42.5337 10.8586 42.5337C8.2609 42.5337 6.44835 40.1395 4.36433 37.1992C1.95037 33.7464 0 28.3825 0 23.2916C0 15.1259 5.27896 10.7953 10.4744 10.7953C13.235 10.7953 15.5362 12.6183 17.2694 12.6183C18.9191 12.6183 21.4917 10.6861 24.6324 10.6861C25.8226 10.6861 30.0993 10.7953 32.9141 14.8529ZM23.1414 7.22916C24.4402 5.67921 25.359 3.52859 25.359 1.37798C25.359 1.07975 25.334 0.777316 25.2797 0.533691C23.1664 0.613499 20.6523 1.94923 19.1362 3.71761C17.946 5.07855 16.835 7.22916 16.835 9.40918C16.835 9.73681 16.8893 10.0644 16.9144 10.1695C17.048 10.1947 17.2652 10.2241 17.4824 10.2241C19.3785 10.2241 21.7632 8.94713 23.1414 7.22916Z" fill="white"/>
</svg>
