<svg width="15" height="14" viewBox="0 0 15 14" fill="none" xmlns="http://www.w3.org/2000/svg">
<path d="M13.4811 2.71855H11.1701L10.6196 1.17566C10.5815 1.07009 10.5118 0.97883 10.42 0.914354C10.3281 0.849879 10.2186 0.815331 10.1064 0.81543H4.8932C4.66381 0.81543 4.4582 0.959863 4.38174 1.17566L3.82949 2.71855H1.51855C0.7675 2.71855 0.15918 3.32688 0.15918 4.07793V11.8264C0.15918 12.5774 0.7675 13.1857 1.51855 13.1857H13.4811C14.2321 13.1857 14.8404 12.5774 14.8404 11.8264V4.07793C14.8404 3.32688 14.2321 2.71855 13.4811 2.71855ZM7.49981 10.467C5.9977 10.467 4.78105 9.25035 4.78105 7.74824C4.78105 6.24613 5.9977 5.02949 7.49981 5.02949C9.00191 5.02949 10.2186 6.24613 10.2186 7.74824C10.2186 9.25035 9.00191 10.467 7.49981 10.467ZM5.86856 7.74824C5.86856 8.18088 6.04042 8.59579 6.34634 8.90171C6.65226 9.20763 7.06717 9.37949 7.49981 9.37949C7.93244 9.37949 8.34735 9.20763 8.65327 8.90171C8.95919 8.59579 9.13106 8.18088 9.13106 7.74824C9.13106 7.31561 8.95919 6.90069 8.65327 6.59477C8.34735 6.28886 7.93244 6.11699 7.49981 6.11699C7.06717 6.11699 6.65226 6.28886 6.34634 6.59477C6.04042 6.90069 5.86856 7.31561 5.86856 7.74824Z" fill="white"/>
</svg>
